<svg width="32" height="32" viewBox="0 0 32 32" fill="none" xmlns="http://www.w3.org/2000/svg">
<circle cx="16" cy="8" r="7" stroke="black" stroke-width="2"/>
<path fill-rule="evenodd" clip-rule="evenodd" d="M24.993 28C24.3028 22.8024 20.4349 19 16 19C11.5651 19 7.69722 22.8024 7.007 28H6C6.70028 22.3462 10.9106 18 16 18C21.0894 18 25.2997 22.3462 26 28H24.993Z" fill="black"/>
<path d="M24.993 28L24.0017 28.1316L24.117 29H24.993V28ZM7.007 28V29H7.88298L7.99829 28.1316L7.007 28ZM6 28L5.00758 27.8771L4.8685 29H6V28ZM26 28V29H27.1315L26.9924 27.8771L26 28ZM25.9843 27.8684C25.2435 22.2897 21.0451 18 16 18V20C19.8247 20 23.3621 23.3151 24.0017 28.1316L25.9843 27.8684ZM16 18C10.9549 18 6.75652 22.2897 6.0157 27.8684L7.99829 28.1316C8.63791 23.3151 12.1753 20 16 20V18ZM6 29H7.007V27H6V29ZM16 17C10.2923 17 5.75485 21.8439 5.00758 27.8771L6.99242 28.1229C7.6457 22.8485 11.529 19 16 19V17ZM26.9924 27.8771C26.2451 21.8439 21.7077 17 16 17V19C20.471 19 24.3543 22.8485 25.0076 28.1229L26.9924 27.8771ZM24.993 29H26V27H24.993V29Z" fill="black"/>
</svg>
